<svg xmlns="http://www.w3.org/2000/svg" xmlns:xlink="http://www.w3.org/1999/xlink" preserveAspectRatio="xMidYMid" width="51" height="51" viewBox="0 0 51 51">
  <defs>
    <style>
      .cls-1 {
        filter: url(#color-overlay-1);
      }

      .cls-2 {
        stroke: #2aadcf;
        fill: none;
      }

      .cls-2, .cls-3 {
        stroke-width: 3px;
      }

      .cls-2, .cls-3, .cls-4 {
        opacity: 0.8;
        fill-rule: evenodd;
      }

      .cls-3, .cls-4 {
        fill: #2aadcf;
      }

      .cls-3 {
        stroke: #000;
        stroke-linejoin: round;
        fill-opacity: 0;
      }
    </style>

    <filter id="color-overlay-1" filterUnits="userSpaceOnUse">
      <feFlood flood-color="#2aadcf"/>
      <feComposite operator="in" in2="SourceGraphic"/>
      <feBlend in2="SourceGraphic" result="solidFill"/>
    </filter>
  </defs>
  <g class="cls-1">
    <path d="M9.117,19.006 L9.117,19.006 C7.925,17.851 7.130,16.236 7.010,14.398 C6.761,10.586 9.495,7.279 13.115,7.013 C15.529,6.835 17.723,8.058 18.994,10.020 L18.994,10.020 " class="cls-2"/>
    <path d="M40.707,19.003 L40.707,19.003 C41.999,17.849 42.860,16.236 42.989,14.400 C43.259,10.592 40.299,7.288 36.378,7.022 C33.764,6.845 31.388,8.067 30.012,10.026 L30.012,10.026 " class="cls-2"/>
    <path d="M24.948,10.972 C33.942,10.972 41.233,18.363 41.233,27.480 C41.233,36.596 33.942,43.986 24.948,43.986 C15.954,43.986 8.663,36.596 8.663,27.480 C8.663,18.363 15.954,10.972 24.948,10.972 Z" class="cls-3"/>
    <path d="M33.525,29.000 L24.344,29.000 C23.801,29.000 23.361,28.552 23.361,28.000 L23.361,16.667 C23.361,16.114 23.801,15.667 24.344,15.667 C24.887,15.667 25.328,16.114 25.328,16.667 L25.328,27.000 L33.525,27.000 C34.068,27.000 34.508,27.448 34.508,28.000 C34.508,28.552 34.068,29.000 33.525,29.000 Z" class="cls-4"/>
  </g>
</svg>
