<svg xmlns="http://www.w3.org/2000/svg" xmlns:xlink="http://www.w3.org/1999/xlink" preserveAspectRatio="xMidYMid" width="66" height="73" viewBox="0 0 66 73">
  <defs>
    <style>
      .cls-1, .cls-2 {
        stroke: #f4b53c;
        stroke-width: 3px;
      }

      .cls-1 {
        fill: none;
      }

      .cls-1, .cls-3 {
        fill-rule: evenodd;
      }

      .cls-2, .cls-3 {
        fill: #f4b53c;
      }

      .cls-2 {
        stroke-linejoin: round;
        fill-opacity: 0;
      }
    </style>
  </defs>
  <g>
    <path d="M7.633,30.654 L7.633,30.654 C5.023,28.282 3.284,24.965 3.021,21.192 C2.477,13.362 8.459,6.571 16.382,6.024 C21.664,5.660 26.464,8.171 29.246,12.200 L29.246,12.200 " class="cls-1"/>
    <path d="M59.344,30.228 L59.344,30.228 C61.966,27.902 63.715,24.652 63.978,20.954 C64.525,13.281 58.514,6.626 50.551,6.089 C45.242,5.732 40.418,8.193 37.622,12.142 L37.622,12.142 " class="cls-1"/>
    <circle cx="33.422" cy="39.703" r="26.359" class="cls-2"/>
    <path d="M46.501,41.969 L32.499,41.969 C31.671,41.969 31.000,41.297 31.000,40.469 L31.000,40.469 L31.000,40.468 L31.000,23.500 C31.000,22.672 31.672,22.000 32.500,22.000 C33.328,22.000 34.000,22.672 34.000,23.500 L34.000,38.969 L46.501,38.969 C47.329,38.969 48.000,39.640 48.000,40.468 L48.000,40.469 C48.000,41.297 47.329,41.969 46.501,41.969 Z" class="cls-3"/>
  </g>
</svg>
