<svg xmlns="http://www.w3.org/2000/svg" xmlns:xlink="http://www.w3.org/1999/xlink" preserveAspectRatio="xMidYMid" width="51" height="51" viewBox="0 0 51 51">
  <defs>
    <style>
      .cls-1 {
        fill: #18b264;
        stroke: #18b264;
        stroke-linejoin: round;
        stroke-width: 3px;
        opacity: 0.8;
        fill-opacity: 0;
        fill-rule: evenodd;
      }
    </style>
  </defs>
  <path d="M30.671,45.859 C25.223,44.768 19.737,41.462 15.659,34.466 C11.626,27.548 11.297,20.447 12.874,15.799 C13.970,12.570 16.392,10.845 17.449,10.436 C18.505,10.028 20.174,9.574 20.942,10.751 C21.857,12.154 23.811,17.775 24.262,19.835 C24.464,20.759 23.614,21.948 22.065,22.696 C20.515,23.443 18.573,24.093 18.942,25.979 C19.139,26.983 19.074,27.790 21.133,31.345 C22.994,34.556 24.308,35.589 25.334,36.230 C26.847,37.177 28.015,35.883 29.283,34.967 C30.551,34.050 31.640,33.673 32.642,34.415 C33.709,35.206 38.030,40.284 38.881,41.649 C39.519,42.673 37.863,44.008 37.863,44.008 C37.863,44.008 34.820,46.690 30.671,45.859 Z" class="cls-1"/>
</svg>
