<svg xmlns="http://www.w3.org/2000/svg" xmlns:xlink="http://www.w3.org/1999/xlink" preserveAspectRatio="xMidYMid" width="66" height="73" viewBox="0 0 66 73">
  <defs>
    <style>
      .cls-1 {
        fill: #f4b53c;
        stroke: #f4b53c;
        stroke-linejoin: round;
        stroke-width: 3px;
        fill-opacity: 0;
        fill-rule: evenodd;
      }
    </style>
  </defs>
  <path d="M40.226,70.673 C29.947,68.583 19.596,62.253 11.903,48.855 C4.295,35.606 3.674,22.006 6.649,13.107 C8.717,6.921 13.286,3.618 15.280,2.836 C17.273,2.053 20.421,1.185 21.870,3.438 C23.597,6.125 27.283,16.891 28.133,20.835 C28.515,22.605 26.911,24.881 23.988,26.313 C21.065,27.745 17.401,28.989 18.097,32.601 C18.468,34.525 18.347,36.070 22.231,42.878 C25.741,49.028 28.220,51.006 30.156,52.234 C33.010,54.045 35.214,51.568 37.607,49.813 C39.999,48.058 42.052,47.336 43.944,48.758 C45.957,50.271 54.109,59.996 55.714,62.610 C56.918,64.572 53.794,67.129 53.794,67.129 C53.794,67.129 48.052,72.264 40.226,70.673 Z" class="cls-1"/>
</svg>
