<svg xmlns="http://www.w3.org/2000/svg" xmlns:xlink="http://www.w3.org/1999/xlink" preserveAspectRatio="xMidYMid" width="36" height="37" viewBox="0 0 36 37">
  <defs>
    <style>
      .cls-1 {
        fill: #838384;
        fill-rule: evenodd;
      }
    </style>
  </defs>
  <path d="M35.384,36.385 C34.573,37.193 33.259,37.193 32.448,36.385 L23.451,27.390 C21.045,29.031 18.140,29.992 15.008,29.992 C6.723,29.992 0.007,23.281 0.007,15.000 C0.007,6.720 6.723,0.008 15.008,0.008 C23.293,0.008 30.009,6.720 30.009,15.000 C30.009,18.654 28.698,22.000 26.525,24.601 L35.384,33.460 C36.195,34.267 36.195,35.577 35.384,36.385 ZM14.995,3.990 C8.914,3.990 3.984,8.918 3.984,14.996 C3.984,21.075 8.914,26.002 14.995,26.002 C21.075,26.002 26.005,21.075 26.005,14.996 C26.005,8.918 21.075,3.990 14.995,3.990 Z" class="cls-1"/>
</svg>
